#define cursor1_width 24
#define cursor1_height 24
#define cursor1_x_hot 11
#define cursor1_y_hot 11
static unsigned char cursor1_bits[] = {
   0x00, 0x22, 0x00, 0x00, 0x22, 0x00, 0x00, 0x36, 0x00, 0x00, 0x14, 0x00,
   0x00, 0x14, 0x00, 0x00, 0x1c, 0x00, 0x00, 0x08, 0x00, 0x00, 0x08, 0x00,
   0x00, 0x08, 0x00, 0x07, 0x00, 0x70, 0x3c, 0x00, 0x1e, 0xe0, 0xc1, 0x03,
   0x3c, 0x00, 0x1e, 0x07, 0x00, 0x70, 0x00, 0x08, 0x00, 0x00, 0x08, 0x00,
   0x00, 0x08, 0x00, 0x00, 0x1c, 0x00, 0x00, 0x14, 0x00, 0x00, 0x14, 0x00,
   0x00, 0x36, 0x00, 0x00, 0x22, 0x00, 0x00, 0x22, 0x00, 0x00, 0x00, 0x00};
